<?xml version="1.0" encoding="utf-8"?>
<!-- Svg Vector Icons : http://www.onlinewebfonts.com/icon -->
<!DOCTYPE svg PUBLIC "-//W3C//DTD SVG 1.1//EN" "http://www.w3.org/Graphics/SVG/1.1/DTD/svg11.dtd">
<svg version="1.1" xmlns="http://www.w3.org/2000/svg" xmlns:xlink="http://www.w3.org/1999/xlink" x="0px" y="0px" viewBox="0 0 256 256" enable-background="new 0 0 256 256" xml:space="preserve">
<metadata> Svg Vector Icons : http://www.onlinewebfonts.com/icon </metadata>
<g><g><path fill="#000000" d="M128,10c-48.9,0-88.5,39.6-88.5,88.5c0,48.9,73.8,147.5,88.5,147.5c14.8,0,88.5-98.6,88.5-147.5C216.5,49.6,176.9,10,128,10z M128,157.5c-32.5,0-59-26.5-59-59s26.5-59,59-59c32.5,0,59,26.5,59,59C187,131,160.5,157.5,128,157.5z"/><path fill="#000000" d="M92.2,136h8.8v5.4c0,1.6,1.3,2.8,2.8,2.8h7.8c1.6,0,2.8-1.3,2.8-2.8V136h27.2v5.4c0,1.6,1.3,2.8,2.8,2.8h7.8c1.6,0,2.8-1.3,2.8-2.8V136h8.8v-5.2H92.2V136z"/><path fill="#000000" d="M95.6,76.6c0-1.6,1.3-2.8,2.8-2.8h59.1c1.6,0,2.8,1.3,2.8,2.8V82h3.7V60H91.9v22h3.7L95.6,76.6L95.6,76.6z"/><path fill="#000000" d="M162.4,84.2v9.2h-4v-14c0-1.6-1.3-2.8-2.8-2.8h-55.1c-1.6,0-2.8,1.3-2.8,2.8v14h-4v-9.2h-6.3v9.2v5.9h6.3h4v4.1H95c-1.6,0-2.8,1.3-2.8,2.8v23h71.7v-23c0-1.6-1.3-2.8-2.8-2.8h-2.6v-4.1h4h6.3v-5.9v-9.2H162.4z M102.9,83.7c0-1.6,1.3-2.8,2.8-2.8h44.4c1.6,0,2.8,1.3,2.8,2.8v19.7h-50.1V83.7z M107.4,124.7h-4.8c-1.3,0-2.4-1.1-2.4-2.4c0-1.3,1.1-2.4,2.4-2.4h4.8c1.3,0,2.4,1.1,2.4,2.4C109.9,123.6,108.8,124.7,107.4,124.7z M142.8,124.7h-29.6v-2.8h29.6V124.7z M142.8,118.8h-29.6V116h29.6V118.8z M142.8,112.9h-29.6V110h29.6V112.9z M153.4,124.7h-4.8c-1.3,0-2.4-1.1-2.4-2.4c0-1.3,1.1-2.4,2.4-2.4h4.8c1.3,0,2.4,1.1,2.4,2.4C155.8,123.6,154.7,124.7,153.4,124.7z"/></g></g>
</svg>